HIERARCHY
ROOT hip
{
	OFFSET 0.000000 0.000000 0.000000 
	CHANNELS 6 Xposition Yposition Zposition Xrotation Zrotation Yrotation
	JOINT abdomen
	{
		OFFSET 0.000000 3.402643 0.000000 
		CHANNELS 3 Xrotation Zrotation Yrotation
		JOINT chest
		{
			OFFSET 0.000000 8.438565 -0.680529 
			CHANNELS 3 Xrotation Zrotation Yrotation
			JOINT neck
			{
				OFFSET 0.000000 10.207942 -0.272212 
				CHANNELS 3 Xrotation Zrotation Yrotation
				JOINT head
				{
					OFFSET 0.000000 3.130431 0.000000 
					CHANNELS 3 Xrotation Zrotation Yrotation
					End Site
					{
						OFFSET 0.000000 3.130435 0.000000 
					}
				}
			}
			JOINT lCollar
			{
				OFFSET 3.470700 6.669187 -0.816635 
				CHANNELS 3 Yrotation Zrotation Xrotation
				JOINT lShldr
				{
					OFFSET 3.198488 0.000000 0.000000 
					CHANNELS 3 Zrotation Yrotation Xrotation
					JOINT lForeArm
					{
						OFFSET 10.139888 0.000000 0.000000 
						CHANNELS 3 Yrotation Zrotation Xrotation
						JOINT lHand
						{
							OFFSET 8.370511 0.000000 0.000000 
							CHANNELS 3 Zrotation Yrotation Xrotation
							End Site
							{
								OFFSET 4.083176 0.000000 0.000000 
							}
						}
					}
				}
			}
			JOINT rCollar
			{
				OFFSET -3.470700 6.669187 -0.816635 
				CHANNELS 3 Yrotation Zrotation Xrotation
				JOINT rShldr
				{
					OFFSET -3.198488 0.000000 0.000000 
					CHANNELS 3 Zrotation Yrotation Xrotation
					JOINT rForeArm
					{
						OFFSET -10.139888 0.000000 0.000000 
						CHANNELS 3 Yrotation Zrotation Xrotation
						JOINT rHand
						{
							OFFSET -8.370511 0.000000 0.000000 
							CHANNELS 3 Zrotation Yrotation Xrotation
							End Site
							{
								OFFSET -4.083176 0.000000 0.000000 
							}
						}
					}
				}
			}
		}
	}
	JOINT lThigh
	{
		OFFSET 5.308129 -1.633274 1.361059 
		CHANNELS 3 Xrotation Zrotation Yrotation
		JOINT lShin
		{
			OFFSET -2.041588 -20.007561 0.000000 
			CHANNELS 3 Xrotation Zrotation Yrotation
			JOINT lFoot
			{
				OFFSET 0.000000 -19.190928 -1.224953 
				CHANNELS 3 Xrotation Yrotation Zrotation
				End Site
				{
					OFFSET 0.000000 -2.449906 4.627600 
				}
			}
		}
	}
	JOINT rThigh
	{
		OFFSET -5.308129 -1.633274 1.361059 
		CHANNELS 3 Xrotation Zrotation Yrotation
		JOINT rShin
		{
			OFFSET 2.041588 -20.007561 0.000000 
			CHANNELS 3 Xrotation Zrotation Yrotation
			JOINT rFoot
			{
				OFFSET 0.000000 -19.190928 -1.224953 
				CHANNELS 3 Xrotation Yrotation Zrotation
				End Site
				{
					OFFSET 0.000000 -2.449906 4.627600 
				}
			}
		}
	}
}
MOTION
Frames: 8
Frame Time: 0.016667
2.701412 51.442722 0.173284 0.616694 -3.005389 -54.730850 36.475670 -2.106668 1.987624 2.970956 -0.712376 3.320387 0.402534 -3.741827 -0.057112 -1.006894 -11.085688 61.901951 -12.816051 -16.181532 -0.855701 -67.564934 15.738107 -39.288712 -95.970413 -5.000000 -1.454448 -24.872089 -28.629009 -31.201107 8.915552 1.426415 -0.071389 78.502007 14.793116 15.064712 107.399445 5.000000 -6.543481 35.715366 3.029734 -6.172971 -6.161016 22.689663 5.833369 -2.205097 -5.267137 0.006424 13.736382 -0.676436 -17.714542 16.555500 -10.915626 -20.771984 3.363181 0.727133 -0.019992 -3.838037 -20.254827 16.750189 
2.634888 51.436234 0.123006 0.457690 -3.407313 -54.673992 36.345631 -1.777962 2.202251 3.023764 -0.605028 3.300865 0.567113 -3.545798 -0.067028 -0.679537 -11.186282 61.345768 -12.675558 -15.937744 -0.840430 -66.416168 14.827085 -36.346069 -96.792267 -5.000000 -1.280083 -24.236618 -28.548679 -31.427279 9.052322 1.465426 -0.073405 78.530655 15.682164 16.755671 107.128761 5.000000 -5.956208 37.661724 2.499306 -5.771319 -5.780842 22.866892 5.818111 -2.107567 -5.254865 -0.021746 13.630458 -0.653515 -17.665709 17.085743 -10.682830 -20.678768 3.224510 0.727343 -0.065195 -3.829783 -20.308361 16.696852 
2.562536 51.430721 0.084402 0.246346 -3.837623 -54.516266 36.199383 -1.425431 2.359558 3.086797 -0.497697 3.251957 0.730532 -3.288918 -0.065848 -0.158216 -11.376500 60.485779 -12.563107 -15.606190 -0.823337 -64.921638 13.681336 -32.890556 -97.601128 -5.000000 -0.934225 -23.512432 -28.650414 -31.840166 9.150126 1.395604 -0.079516 78.544472 16.946465 18.941563 106.984253 5.000000 -5.346580 37.558002 2.369067 -5.461171 -5.409479 23.002148 5.712426 -1.982640 -5.240168 -0.022277 13.554417 -0.735862 -17.640537 17.724060 -10.459170 -20.738724 3.073610 0.727137 -0.052437 -3.915600 -20.372637 16.639936 
2.486300 51.425850 0.053596 -0.023017 -4.284204 -54.294682 36.045242 -1.052851 2.515011 3.149245 -0.409889 3.173845 0.883790 -2.972644 -0.064370 0.492065 -11.618876 59.410721 -12.488985 -15.216125 -0.800629 -63.258652 12.311930 -29.143864 -98.392883 -4.767621 -0.410907 -22.743298 -28.861969 -32.398045 9.198779 1.268812 -0.072963 78.597305 18.447104 21.467840 106.936852 5.000000 -4.706085 36.078602 2.529295 -5.203855 -5.009655 23.101131 5.561461 -1.856501 -5.212887 -0.014331 13.549612 -0.835016 -17.584690 18.410782 -10.242283 -20.880424 2.914625 0.717422 -0.040004 -3.991802 -20.429996 16.583782 
2.411351 51.420334 0.025384 -0.291009 -4.719544 -54.066647 35.882057 -0.695994 2.662890 3.202315 -0.302550 3.095727 1.076882 -2.696449 -0.066669 1.190913 -11.848681 58.270081 -12.404984 -14.806556 -0.779505 -61.576054 10.814533 -25.423723 -99.203537 -0.354777 0.250675 -21.839169 -29.070881 -33.000317 9.257179 1.112761 -0.064898 78.723068 20.018715 24.094440 106.943512 5.000000 -4.028754 34.669537 2.955437 -5.272960 -4.598557 23.184347 5.421477 -1.758355 -5.185158 -0.033170 13.485143 -0.913600 -17.567888 19.081612 -10.058592 -20.965876 2.798905 0.737920 -0.054791 -4.053304 -20.521498 16.545202 
2.341597 51.412220 0.007544 -0.558160 -5.114751 -53.826630 35.650700 -0.346979 2.810642 3.198512 -0.136641 2.958979 1.437610 -2.569466 -0.075998 2.042146 -12.066732 56.839649 -12.301230 -14.367726 -0.754404 -59.526260 9.140491 -21.636766 -99.983154 4.288000 1.086609 -20.452341 -29.269939 -33.773670 9.305694 0.810422 -0.049273 78.956924 21.879635 27.069105 107.071884 5.000000 -3.192521 33.479614 4.369393 -6.728941 -4.228075 23.247334 5.216995 -1.668971 -5.131836 -0.023574 13.420216 -0.920706 -17.623495 19.693731 -9.892097 -21.042923 2.783252 0.716847 -0.026244 -4.166878 -20.656557 16.528769 
2.271841 51.404110 -0.010288 -0.827519 -5.509805 -53.580631 35.420437 0.007251 2.949282 3.193995 0.019521 2.822269 1.788560 -2.432826 -0.086785 2.901793 -12.258977 55.414589 -12.207446 -13.928894 -0.731754 -57.617203 7.333964 -17.934385 -100.829231 5.000000 2.052090 -19.060635 -29.447695 -34.545074 9.364057 0.508081 -0.033645 79.304443 23.705538 30.079504 107.250130 5.000000 -2.345622 32.238251 5.719448 -8.237415 -3.856844 23.304304 5.012316 -1.579931 -5.098827 -0.041651 13.285705 -0.936587 -17.645782 20.288551 -9.735882 -21.110126 2.792089 0.719137 -0.006413 -4.273237 -20.738287 16.511494 
2.195610 51.397308 -0.019040 -1.146843 -5.870423 -53.490372 35.148525 0.244218 3.083589 3.148598 0.126888 2.773454 2.363652 -2.246449 -0.095217 3.820427 -12.405784 53.998238 -12.202537 -13.370975 -0.710031 -55.544182 5.608106 -14.829282 -101.636726 5.000000 3.080404 -17.441931 -29.585323 -35.107849 9.549473 0.254481 -0.020534 79.586548 25.775896 33.113995 107.463921 5.000000 -1.427423 30.724873 8.263161 -9.968258 -3.320096 23.323751 5.048145 -1.580936 -5.108737 -0.041343 13.217648 -0.954871 -17.654854 20.782156 -9.705622 -20.996546 2.948225 0.698979 -0.009407 -4.475174 -20.908815 16.528826 
